<?xml version="1.0" encoding="UTF-8" standalone="no"?>
<!DOCTYPE svg PUBLIC "-//W3C//DTD SVG 1.1//EN"
 "http://www.w3.org/Graphics/SVG/1.1/DTD/svg11.dtd">
<!-- Generated by graphviz version 6.0.2 (20221011.1828)
 -->
<!-- Title: List Pages: 1 -->
<svg width="533pt" height="451pt"
 viewBox="0.00 0.00 532.50 451.00" xmlns="http://www.w3.org/2000/svg" xmlns:xlink="http://www.w3.org/1999/xlink">
<g id="graph0" class="graph" transform="scale(1 1) rotate(0) translate(4 447)">
<title>List</title>
<polygon fill="#696969" stroke="none" points="-4,4 -4,-447 528.5,-447 528.5,4 -4,4"/>
<text text-anchor="middle" x="262.25" y="-7.8" font-family="Times New Roman,serif" font-size="14.00">tree_dump from function main, Tree/main.cpp:21</text>
<!-- node0 -->
<g id="node1" class="node">
<title>node0</title>
<path fill="#ff0000" stroke="black" d="M216,-327.5C216,-327.5 304,-327.5 304,-327.5 310,-327.5 316,-333.5 316,-339.5 316,-339.5 316,-430.5 316,-430.5 316,-436.5 310,-442.5 304,-442.5 304,-442.5 216,-442.5 216,-442.5 210,-442.5 204,-436.5 204,-430.5 204,-430.5 204,-339.5 204,-339.5 204,-333.5 210,-327.5 216,-327.5"/>
<text text-anchor="middle" x="260" y="-427.3" font-family="Times New Roman,serif" font-size="14.00">idx: 0124D140</text>
<polyline fill="none" stroke="black" points="204,-419.5 316,-419.5"/>
<text text-anchor="middle" x="260" y="-404.3" font-family="Times New Roman,serif" font-size="14.00">value: 10</text>
<polyline fill="none" stroke="black" points="204,-396.5 316,-396.5"/>
<text text-anchor="middle" x="260" y="-381.3" font-family="Times New Roman,serif" font-size="14.00">left: 0124D0F8</text>
<polyline fill="none" stroke="black" points="204,-373.5 316,-373.5"/>
<text text-anchor="middle" x="260" y="-358.3" font-family="Times New Roman,serif" font-size="14.00">right: 0124CFC0</text>
<polyline fill="none" stroke="black" points="204,-350.5 316,-350.5"/>
<text text-anchor="middle" x="260" y="-335.3" font-family="Times New Roman,serif" font-size="14.00">parent: 00000000</text>
</g>
<!-- node1 -->
<g id="node2" class="node">
<title>node1</title>
<path fill="#00bfff" stroke="black" d="M146.5,-175.5C146.5,-175.5 237.5,-175.5 237.5,-175.5 243.5,-175.5 249.5,-181.5 249.5,-187.5 249.5,-187.5 249.5,-278.5 249.5,-278.5 249.5,-284.5 243.5,-290.5 237.5,-290.5 237.5,-290.5 146.5,-290.5 146.5,-290.5 140.5,-290.5 134.5,-284.5 134.5,-278.5 134.5,-278.5 134.5,-187.5 134.5,-187.5 134.5,-181.5 140.5,-175.5 146.5,-175.5"/>
<text text-anchor="middle" x="192" y="-275.3" font-family="Times New Roman,serif" font-size="14.00">idx: 0124D0F8</text>
<polyline fill="none" stroke="black" points="134.5,-267.5 249.5,-267.5"/>
<text text-anchor="middle" x="192" y="-252.3" font-family="Times New Roman,serif" font-size="14.00">value: 5</text>
<polyline fill="none" stroke="black" points="134.5,-244.5 249.5,-244.5"/>
<text text-anchor="middle" x="192" y="-229.3" font-family="Times New Roman,serif" font-size="14.00">left: 0124CFF0</text>
<polyline fill="none" stroke="black" points="134.5,-221.5 249.5,-221.5"/>
<text text-anchor="middle" x="192" y="-206.3" font-family="Times New Roman,serif" font-size="14.00">right: 0124D158</text>
<polyline fill="none" stroke="black" points="134.5,-198.5 249.5,-198.5"/>
<text text-anchor="middle" x="192" y="-183.3" font-family="Times New Roman,serif" font-size="14.00">parent: 0124D140</text>
</g>
<!-- node0&#45;&gt;node1 -->
<g id="edge1" class="edge">
<title>node0&#45;&gt;node1</title>
<path fill="none" stroke="#00bfff" d="M234.29,-327.29C230.27,-318.42 226.09,-309.19 221.98,-300.14"/>
<polygon fill="#00bfff" stroke="#00bfff" points="225.06,-298.45 217.74,-290.79 218.69,-301.34 225.06,-298.45"/>
</g>
<!-- node4 -->
<g id="node5" class="node">
<title>node4</title>
<path fill="#ccff99" stroke="black" d="M282.5,-175.5C282.5,-175.5 373.5,-175.5 373.5,-175.5 379.5,-175.5 385.5,-181.5 385.5,-187.5 385.5,-187.5 385.5,-278.5 385.5,-278.5 385.5,-284.5 379.5,-290.5 373.5,-290.5 373.5,-290.5 282.5,-290.5 282.5,-290.5 276.5,-290.5 270.5,-284.5 270.5,-278.5 270.5,-278.5 270.5,-187.5 270.5,-187.5 270.5,-181.5 276.5,-175.5 282.5,-175.5"/>
<text text-anchor="middle" x="328" y="-275.3" font-family="Times New Roman,serif" font-size="14.00">idx: 0124CFC0</text>
<polyline fill="none" stroke="black" points="270.5,-267.5 385.5,-267.5"/>
<text text-anchor="middle" x="328" y="-252.3" font-family="Times New Roman,serif" font-size="14.00">value: 7</text>
<polyline fill="none" stroke="black" points="270.5,-244.5 385.5,-244.5"/>
<text text-anchor="middle" x="328" y="-229.3" font-family="Times New Roman,serif" font-size="14.00">left: 0124D020</text>
<polyline fill="none" stroke="black" points="270.5,-221.5 385.5,-221.5"/>
<text text-anchor="middle" x="328" y="-206.3" font-family="Times New Roman,serif" font-size="14.00">right: 0124D080</text>
<polyline fill="none" stroke="black" points="270.5,-198.5 385.5,-198.5"/>
<text text-anchor="middle" x="328" y="-183.3" font-family="Times New Roman,serif" font-size="14.00">parent: 0124D140</text>
</g>
<!-- node0&#45;&gt;node4 -->
<g id="edge4" class="edge">
<title>node0&#45;&gt;node4</title>
<path fill="none" stroke="#ccff99" d="M285.71,-327.29C289.73,-318.42 293.91,-309.19 298.02,-300.14"/>
<polygon fill="#ccff99" stroke="#ccff99" points="301.31,-301.34 302.26,-290.79 294.94,-298.45 301.31,-301.34"/>
</g>
<!-- node2 -->
<g id="node3" class="node">
<title>node2</title>
<path fill="#00bfff" stroke="black" d="M12,-23.5C12,-23.5 104,-23.5 104,-23.5 110,-23.5 116,-29.5 116,-35.5 116,-35.5 116,-126.5 116,-126.5 116,-132.5 110,-138.5 104,-138.5 104,-138.5 12,-138.5 12,-138.5 6,-138.5 0,-132.5 0,-126.5 0,-126.5 0,-35.5 0,-35.5 0,-29.5 6,-23.5 12,-23.5"/>
<text text-anchor="middle" x="58" y="-123.3" font-family="Times New Roman,serif" font-size="14.00">idx: 0124CFF0</text>
<polyline fill="none" stroke="black" points="0,-115.5 116,-115.5"/>
<text text-anchor="middle" x="58" y="-100.3" font-family="Times New Roman,serif" font-size="14.00">value: 3</text>
<polyline fill="none" stroke="black" points="0,-92.5 116,-92.5"/>
<text text-anchor="middle" x="58" y="-77.3" font-family="Times New Roman,serif" font-size="14.00">left: 00000000</text>
<polyline fill="none" stroke="black" points="0,-69.5 116,-69.5"/>
<text text-anchor="middle" x="58" y="-54.3" font-family="Times New Roman,serif" font-size="14.00">right: 00000000</text>
<polyline fill="none" stroke="black" points="0,-46.5 116,-46.5"/>
<text text-anchor="middle" x="58" y="-31.3" font-family="Times New Roman,serif" font-size="14.00">parent: 0124D0F8</text>
</g>
<!-- node1&#45;&gt;node2 -->
<g id="edge2" class="edge">
<title>node1&#45;&gt;node2</title>
<path fill="none" stroke="#00bfff" d="M141.34,-175.29C132.92,-165.86 124.13,-156.03 115.55,-146.43"/>
<polygon fill="#00bfff" stroke="#00bfff" points="118,-143.91 108.73,-138.79 112.78,-148.58 118,-143.91"/>
</g>
<!-- node3 -->
<g id="node4" class="node">
<title>node3</title>
<path fill="#ccff99" stroke="black" d="M146,-23.5C146,-23.5 238,-23.5 238,-23.5 244,-23.5 250,-29.5 250,-35.5 250,-35.5 250,-126.5 250,-126.5 250,-132.5 244,-138.5 238,-138.5 238,-138.5 146,-138.5 146,-138.5 140,-138.5 134,-132.5 134,-126.5 134,-126.5 134,-35.5 134,-35.5 134,-29.5 140,-23.5 146,-23.5"/>
<text text-anchor="middle" x="192" y="-123.3" font-family="Times New Roman,serif" font-size="14.00">idx: 0124D158</text>
<polyline fill="none" stroke="black" points="134,-115.5 250,-115.5"/>
<text text-anchor="middle" x="192" y="-100.3" font-family="Times New Roman,serif" font-size="14.00">value: 6</text>
<polyline fill="none" stroke="black" points="134,-92.5 250,-92.5"/>
<text text-anchor="middle" x="192" y="-77.3" font-family="Times New Roman,serif" font-size="14.00">left: 00000000</text>
<polyline fill="none" stroke="black" points="134,-69.5 250,-69.5"/>
<text text-anchor="middle" x="192" y="-54.3" font-family="Times New Roman,serif" font-size="14.00">right: 00000000</text>
<polyline fill="none" stroke="black" points="134,-46.5 250,-46.5"/>
<text text-anchor="middle" x="192" y="-31.3" font-family="Times New Roman,serif" font-size="14.00">parent: 0124D0F8</text>
</g>
<!-- node1&#45;&gt;node3 -->
<g id="edge3" class="edge">
<title>node1&#45;&gt;node3</title>
<path fill="none" stroke="#ccff99" d="M192,-175.29C192,-166.7 192,-157.78 192,-149"/>
<polygon fill="#ccff99" stroke="#ccff99" points="195.5,-148.79 192,-138.79 188.5,-148.79 195.5,-148.79"/>
</g>
<!-- node5 -->
<g id="node6" class="node">
<title>node5</title>
<path fill="#00bfff" stroke="black" d="M280.5,-23.5C280.5,-23.5 375.5,-23.5 375.5,-23.5 381.5,-23.5 387.5,-29.5 387.5,-35.5 387.5,-35.5 387.5,-126.5 387.5,-126.5 387.5,-132.5 381.5,-138.5 375.5,-138.5 375.5,-138.5 280.5,-138.5 280.5,-138.5 274.5,-138.5 268.5,-132.5 268.5,-126.5 268.5,-126.5 268.5,-35.5 268.5,-35.5 268.5,-29.5 274.5,-23.5 280.5,-23.5"/>
<text text-anchor="middle" x="328" y="-123.3" font-family="Times New Roman,serif" font-size="14.00">idx: 0124D020</text>
<polyline fill="none" stroke="black" points="268.5,-115.5 387.5,-115.5"/>
<text text-anchor="middle" x="328" y="-100.3" font-family="Times New Roman,serif" font-size="14.00">value: 11</text>
<polyline fill="none" stroke="black" points="268.5,-92.5 387.5,-92.5"/>
<text text-anchor="middle" x="328" y="-77.3" font-family="Times New Roman,serif" font-size="14.00">left: 00000000</text>
<polyline fill="none" stroke="black" points="268.5,-69.5 387.5,-69.5"/>
<text text-anchor="middle" x="328" y="-54.3" font-family="Times New Roman,serif" font-size="14.00">right: 00000000</text>
<polyline fill="none" stroke="black" points="268.5,-46.5 387.5,-46.5"/>
<text text-anchor="middle" x="328" y="-31.3" font-family="Times New Roman,serif" font-size="14.00">parent: 0124CFC0</text>
</g>
<!-- node4&#45;&gt;node5 -->
<g id="edge5" class="edge">
<title>node4&#45;&gt;node5</title>
<path fill="none" stroke="#00bfff" d="M328,-175.29C328,-166.7 328,-157.78 328,-149"/>
<polygon fill="#00bfff" stroke="#00bfff" points="331.5,-148.79 328,-138.79 324.5,-148.79 331.5,-148.79"/>
</g>
<!-- node6 -->
<g id="node7" class="node">
<title>node6</title>
<path fill="#ccff99" stroke="black" d="M417.5,-23.5C417.5,-23.5 512.5,-23.5 512.5,-23.5 518.5,-23.5 524.5,-29.5 524.5,-35.5 524.5,-35.5 524.5,-126.5 524.5,-126.5 524.5,-132.5 518.5,-138.5 512.5,-138.5 512.5,-138.5 417.5,-138.5 417.5,-138.5 411.5,-138.5 405.5,-132.5 405.5,-126.5 405.5,-126.5 405.5,-35.5 405.5,-35.5 405.5,-29.5 411.5,-23.5 417.5,-23.5"/>
<text text-anchor="middle" x="465" y="-123.3" font-family="Times New Roman,serif" font-size="14.00">idx: 0124D080</text>
<polyline fill="none" stroke="black" points="405.5,-115.5 524.5,-115.5"/>
<text text-anchor="middle" x="465" y="-100.3" font-family="Times New Roman,serif" font-size="14.00">value: 8</text>
<polyline fill="none" stroke="black" points="405.5,-92.5 524.5,-92.5"/>
<text text-anchor="middle" x="465" y="-77.3" font-family="Times New Roman,serif" font-size="14.00">left: 00000000</text>
<polyline fill="none" stroke="black" points="405.5,-69.5 524.5,-69.5"/>
<text text-anchor="middle" x="465" y="-54.3" font-family="Times New Roman,serif" font-size="14.00">right: 00000000</text>
<polyline fill="none" stroke="black" points="405.5,-46.5 524.5,-46.5"/>
<text text-anchor="middle" x="465" y="-31.3" font-family="Times New Roman,serif" font-size="14.00">parent: 0124CFC0</text>
</g>
<!-- node4&#45;&gt;node6 -->
<g id="edge6" class="edge">
<title>node4&#45;&gt;node6</title>
<path fill="none" stroke="#ccff99" d="M379.79,-175.29C388.4,-165.86 397.39,-156.03 406.16,-146.43"/>
<polygon fill="#ccff99" stroke="#ccff99" points="408.97,-148.53 413.13,-138.79 403.8,-143.81 408.97,-148.53"/>
</g>
<!-- All -->
<g id="node8" class="node">
<title>All</title>
<path fill="#8b00ff" stroke="black" d="M346,-367C346,-367 382,-367 382,-367 388,-367 394,-373 394,-379 394,-379 394,-391 394,-391 394,-397 388,-403 382,-403 382,-403 346,-403 346,-403 340,-403 334,-397 334,-391 334,-391 334,-379 334,-379 334,-373 340,-367 346,-367"/>
<text text-anchor="middle" x="364" y="-381.3" font-family="Times New Roman,serif" font-size="14.00">size = 7</text>
</g>
</g>
</svg>
