<?xml version="1.0" encoding="UTF-8" standalone="no"?>
<!DOCTYPE svg PUBLIC "-//W3C//DTD SVG 1.1//EN"
 "http://www.w3.org/Graphics/SVG/1.1/DTD/svg11.dtd">
<!-- Generated by graphviz version 6.0.2 (20221011.1828)
 -->
<!-- Title: List Pages: 1 -->
<svg width="425pt" height="221pt"
 viewBox="0.00 0.00 425.00 220.50" xmlns="http://www.w3.org/2000/svg" xmlns:xlink="http://www.w3.org/1999/xlink">
<g id="graph0" class="graph" transform="scale(1 1) rotate(0) translate(4 216.5)">
<title>List</title>
<polygon fill="#696969" stroke="none" points="-4,4 -4,-216.5 421,-216.5 421,4 -4,4"/>
<text text-anchor="middle" x="208.5" y="-7.8" font-family="Times New Roman,serif" font-size="14.00">tree_dump from function main, Tree/main.cpp:17</text>
<!-- 0 -->
<g id="node1" class="node">
<title>0</title>
<path fill="#ccff99" stroke="black" d="M12,-23.5C12,-23.5 100,-23.5 100,-23.5 106,-23.5 112,-29.5 112,-35.5 112,-35.5 112,-126.5 112,-126.5 112,-132.5 106,-138.5 100,-138.5 100,-138.5 12,-138.5 12,-138.5 6,-138.5 0,-132.5 0,-126.5 0,-126.5 0,-35.5 0,-35.5 0,-29.5 6,-23.5 12,-23.5"/>
<text text-anchor="middle" x="56" y="-123.3" font-family="Times New Roman,serif" font-size="14.00">idx: 0144D0C8</text>
<polyline fill="none" stroke="black" points="0,-115.5 112,-115.5"/>
<text text-anchor="middle" x="56" y="-100.3" font-family="Times New Roman,serif" font-size="14.00">value: 10</text>
<polyline fill="none" stroke="black" points="0,-92.5 112,-92.5"/>
<text text-anchor="middle" x="56" y="-77.3" font-family="Times New Roman,serif" font-size="14.00">left: 0144D050</text>
<polyline fill="none" stroke="black" points="0,-69.5 112,-69.5"/>
<text text-anchor="middle" x="56" y="-54.3" font-family="Times New Roman,serif" font-size="14.00">right: 00000000</text>
<polyline fill="none" stroke="black" points="0,-46.5 112,-46.5"/>
<text text-anchor="middle" x="56" y="-31.3" font-family="Times New Roman,serif" font-size="14.00">parent: 00000000</text>
</g>
<!-- 0&#45;&gt;0 -->
<g id="edge1" class="edge">
<title>0&#45;&gt;0</title>
<path fill="none" stroke="#696969" d="M29.14,-138.66C32.45,-149.42 41.4,-157 56,-157 70.37,-157 79.27,-149.66 82.7,-139.17"/>
<polygon fill="#696969" stroke="#696969" points="82.86,-138.66 82.86,-138.66 82.86,-138.66 82.86,-138.66"/>
</g>
<!-- 1 -->
<g id="node2" class="node">
<title>1</title>
<path fill="#ccff99" stroke="black" d="M160,-23.5C160,-23.5 254,-23.5 254,-23.5 260,-23.5 266,-29.5 266,-35.5 266,-35.5 266,-126.5 266,-126.5 266,-132.5 260,-138.5 254,-138.5 254,-138.5 160,-138.5 160,-138.5 154,-138.5 148,-132.5 148,-126.5 148,-126.5 148,-35.5 148,-35.5 148,-29.5 154,-23.5 160,-23.5"/>
<text text-anchor="middle" x="207" y="-123.3" font-family="Times New Roman,serif" font-size="14.00">idx: 0144D050</text>
<polyline fill="none" stroke="black" points="148,-115.5 266,-115.5"/>
<text text-anchor="middle" x="207" y="-100.3" font-family="Times New Roman,serif" font-size="14.00">value: 5</text>
<polyline fill="none" stroke="black" points="148,-92.5 266,-92.5"/>
<text text-anchor="middle" x="207" y="-77.3" font-family="Times New Roman,serif" font-size="14.00">left: 00000000</text>
<polyline fill="none" stroke="black" points="148,-69.5 266,-69.5"/>
<text text-anchor="middle" x="207" y="-54.3" font-family="Times New Roman,serif" font-size="14.00">right: 0144D140</text>
<polyline fill="none" stroke="black" points="148,-46.5 266,-46.5"/>
<text text-anchor="middle" x="207" y="-31.3" font-family="Times New Roman,serif" font-size="14.00">parent: 0144D0C8</text>
</g>
<!-- 0&#45;&gt;1 -->
<g id="edge2" class="edge">
<title>0&#45;&gt;1</title>
<path fill="none" stroke="#696969" d="M112.06,-74.46C123.66,-74.2 135.93,-74.18 147.64,-74.39"/>
<polygon fill="#696969" stroke="#696969" points="147.92,-74.4 147.92,-74.4 147.92,-74.4 147.92,-74.4"/>
</g>
<!-- 0&#45;&gt;1 -->
<g id="edge4" class="edge">
<title>0&#45;&gt;1</title>
<path fill="none" stroke="black" d="M112.06,-87.54C120.46,-87.73 129.22,-87.79 137.86,-87.73"/>
<polygon fill="black" stroke="black" points="137.96,-91.23 147.92,-87.6 137.88,-84.23 137.96,-91.23"/>
</g>
<!-- 2 -->
<g id="node3" class="node">
<title>2</title>
<path fill="#ccff99" stroke="black" d="M314,-23.5C314,-23.5 405,-23.5 405,-23.5 411,-23.5 417,-29.5 417,-35.5 417,-35.5 417,-126.5 417,-126.5 417,-132.5 411,-138.5 405,-138.5 405,-138.5 314,-138.5 314,-138.5 308,-138.5 302,-132.5 302,-126.5 302,-126.5 302,-35.5 302,-35.5 302,-29.5 308,-23.5 314,-23.5"/>
<text text-anchor="middle" x="359.5" y="-123.3" font-family="Times New Roman,serif" font-size="14.00">idx: 0144D140</text>
<polyline fill="none" stroke="black" points="302,-115.5 417,-115.5"/>
<text text-anchor="middle" x="359.5" y="-100.3" font-family="Times New Roman,serif" font-size="14.00">value: 6</text>
<polyline fill="none" stroke="black" points="302,-92.5 417,-92.5"/>
<text text-anchor="middle" x="359.5" y="-77.3" font-family="Times New Roman,serif" font-size="14.00">left: 00000000</text>
<polyline fill="none" stroke="black" points="302,-69.5 417,-69.5"/>
<text text-anchor="middle" x="359.5" y="-54.3" font-family="Times New Roman,serif" font-size="14.00">right: 00000000</text>
<polyline fill="none" stroke="black" points="302,-46.5 417,-46.5"/>
<text text-anchor="middle" x="359.5" y="-31.3" font-family="Times New Roman,serif" font-size="14.00">parent: 0144D050</text>
</g>
<!-- 1&#45;&gt;2 -->
<g id="edge3" class="edge">
<title>1&#45;&gt;2</title>
<path fill="none" stroke="#696969" d="M266.19,-74.41C277.84,-74.19 290.07,-74.2 301.68,-74.43"/>
<polygon fill="#696969" stroke="#696969" points="301.95,-74.44 301.95,-74.44 301.95,-74.44 301.95,-74.44"/>
</g>
<!-- 1&#45;&gt;2 -->
<g id="edge5" class="edge">
<title>1&#45;&gt;2</title>
<path fill="none" stroke="black" d="M266.19,-87.59C274.54,-87.75 283.18,-87.79 291.68,-87.71"/>
<polygon fill="black" stroke="black" points="292.01,-91.21 301.95,-87.56 291.9,-84.21 292.01,-91.21"/>
</g>
<!-- All -->
<g id="node4" class="node">
<title>All</title>
<path fill="#8b00ff" stroke="black" d="M38,-176C38,-176 74,-176 74,-176 80,-176 86,-182 86,-188 86,-188 86,-200 86,-200 86,-206 80,-212 74,-212 74,-212 38,-212 38,-212 32,-212 26,-206 26,-200 26,-200 26,-188 26,-188 26,-182 32,-176 38,-176"/>
<text text-anchor="middle" x="56" y="-190.3" font-family="Times New Roman,serif" font-size="14.00">size = 3</text>
</g>
</g>
</svg>
