<?xml version="1.0" encoding="UTF-8" standalone="no"?>
<!DOCTYPE svg PUBLIC "-//W3C//DTD SVG 1.1//EN"
 "http://www.w3.org/Graphics/SVG/1.1/DTD/svg11.dtd">
<!-- Generated by graphviz version 6.0.2 (20221011.1828)
 -->
<!-- Title: List Pages: 1 -->
<svg width="510pt" height="451pt"
 viewBox="0.00 0.00 510.00 451.00" xmlns="http://www.w3.org/2000/svg" xmlns:xlink="http://www.w3.org/1999/xlink">
<g id="graph0" class="graph" transform="scale(1 1) rotate(0) translate(4 447)">
<title>List</title>
<polygon fill="#696969" stroke="none" points="-4,4 -4,-447 506,-447 506,4 -4,4"/>
<text text-anchor="middle" x="251" y="-7.8" font-family="Times New Roman,serif" font-size="14.00">tree_dump from function main, Tree/main.cpp:20</text>
<!-- node0 -->
<g id="node1" class="node">
<title>node0</title>
<path fill="#ff0000" stroke="black" d="M207,-327.5C207,-327.5 295,-327.5 295,-327.5 301,-327.5 307,-333.5 307,-339.5 307,-339.5 307,-430.5 307,-430.5 307,-436.5 301,-442.5 295,-442.5 295,-442.5 207,-442.5 207,-442.5 201,-442.5 195,-436.5 195,-430.5 195,-430.5 195,-339.5 195,-339.5 195,-333.5 201,-327.5 207,-327.5"/>
<text text-anchor="middle" x="251" y="-427.3" font-family="Times New Roman,serif" font-size="14.00">idx: 00E51468</text>
<polyline fill="none" stroke="black" points="195,-419.5 307,-419.5"/>
<text text-anchor="middle" x="251" y="-404.3" font-family="Times New Roman,serif" font-size="14.00">value: 10</text>
<polyline fill="none" stroke="black" points="195,-396.5 307,-396.5"/>
<text text-anchor="middle" x="251" y="-381.3" font-family="Times New Roman,serif" font-size="14.00">left: 00E51480</text>
<polyline fill="none" stroke="black" points="195,-373.5 307,-373.5"/>
<text text-anchor="middle" x="251" y="-358.3" font-family="Times New Roman,serif" font-size="14.00">right: 00E514C8</text>
<polyline fill="none" stroke="black" points="195,-350.5 307,-350.5"/>
<text text-anchor="middle" x="251" y="-335.3" font-family="Times New Roman,serif" font-size="14.00">parent: 00000000</text>
</g>
<!-- node1 -->
<g id="node2" class="node">
<title>node1</title>
<path fill="#00bfff" stroke="black" d="M142,-175.5C142,-175.5 230,-175.5 230,-175.5 236,-175.5 242,-181.5 242,-187.5 242,-187.5 242,-278.5 242,-278.5 242,-284.5 236,-290.5 230,-290.5 230,-290.5 142,-290.5 142,-290.5 136,-290.5 130,-284.5 130,-278.5 130,-278.5 130,-187.5 130,-187.5 130,-181.5 136,-175.5 142,-175.5"/>
<text text-anchor="middle" x="186" y="-275.3" font-family="Times New Roman,serif" font-size="14.00">idx: 00E51480</text>
<polyline fill="none" stroke="black" points="130,-267.5 242,-267.5"/>
<text text-anchor="middle" x="186" y="-252.3" font-family="Times New Roman,serif" font-size="14.00">value: 5</text>
<polyline fill="none" stroke="black" points="130,-244.5 242,-244.5"/>
<text text-anchor="middle" x="186" y="-229.3" font-family="Times New Roman,serif" font-size="14.00">left: 00E51498</text>
<polyline fill="none" stroke="black" points="130,-221.5 242,-221.5"/>
<text text-anchor="middle" x="186" y="-206.3" font-family="Times New Roman,serif" font-size="14.00">right: 00E514B0</text>
<polyline fill="none" stroke="black" points="130,-198.5 242,-198.5"/>
<text text-anchor="middle" x="186" y="-183.3" font-family="Times New Roman,serif" font-size="14.00">parent: 00000000</text>
</g>
<!-- node0&#45;&gt;node1 -->
<g id="edge1" class="edge">
<title>node0&#45;&gt;node1</title>
<path fill="none" stroke="#00bfff" d="M226.43,-327.29C222.58,-318.42 218.58,-309.19 214.66,-300.14"/>
<polygon fill="#00bfff" stroke="#00bfff" points="217.8,-298.57 210.61,-290.79 211.37,-301.36 217.8,-298.57"/>
</g>
<!-- node4 -->
<g id="node5" class="node">
<title>node4</title>
<path fill="#ccff99" stroke="black" d="M272,-175.5C272,-175.5 360,-175.5 360,-175.5 366,-175.5 372,-181.5 372,-187.5 372,-187.5 372,-278.5 372,-278.5 372,-284.5 366,-290.5 360,-290.5 360,-290.5 272,-290.5 272,-290.5 266,-290.5 260,-284.5 260,-278.5 260,-278.5 260,-187.5 260,-187.5 260,-181.5 266,-175.5 272,-175.5"/>
<text text-anchor="middle" x="316" y="-275.3" font-family="Times New Roman,serif" font-size="14.00">idx: 00E514C8</text>
<polyline fill="none" stroke="black" points="260,-267.5 372,-267.5"/>
<text text-anchor="middle" x="316" y="-252.3" font-family="Times New Roman,serif" font-size="14.00">value: 7</text>
<polyline fill="none" stroke="black" points="260,-244.5 372,-244.5"/>
<text text-anchor="middle" x="316" y="-229.3" font-family="Times New Roman,serif" font-size="14.00">left: 00E514E0</text>
<polyline fill="none" stroke="black" points="260,-221.5 372,-221.5"/>
<text text-anchor="middle" x="316" y="-206.3" font-family="Times New Roman,serif" font-size="14.00">right: 00E514F8</text>
<polyline fill="none" stroke="black" points="260,-198.5 372,-198.5"/>
<text text-anchor="middle" x="316" y="-183.3" font-family="Times New Roman,serif" font-size="14.00">parent: 00000000</text>
</g>
<!-- node0&#45;&gt;node4 -->
<g id="edge4" class="edge">
<title>node0&#45;&gt;node4</title>
<path fill="none" stroke="#ccff99" d="M275.57,-327.29C279.42,-318.42 283.42,-309.19 287.34,-300.14"/>
<polygon fill="#ccff99" stroke="#ccff99" points="290.63,-301.36 291.39,-290.79 284.2,-298.57 290.63,-301.36"/>
</g>
<!-- node2 -->
<g id="node3" class="node">
<title>node2</title>
<path fill="#00bfff" stroke="black" d="M12,-23.5C12,-23.5 100,-23.5 100,-23.5 106,-23.5 112,-29.5 112,-35.5 112,-35.5 112,-126.5 112,-126.5 112,-132.5 106,-138.5 100,-138.5 100,-138.5 12,-138.5 12,-138.5 6,-138.5 0,-132.5 0,-126.5 0,-126.5 0,-35.5 0,-35.5 0,-29.5 6,-23.5 12,-23.5"/>
<text text-anchor="middle" x="56" y="-123.3" font-family="Times New Roman,serif" font-size="14.00">idx: 00E51498</text>
<polyline fill="none" stroke="black" points="0,-115.5 112,-115.5"/>
<text text-anchor="middle" x="56" y="-100.3" font-family="Times New Roman,serif" font-size="14.00">value: 3</text>
<polyline fill="none" stroke="black" points="0,-92.5 112,-92.5"/>
<text text-anchor="middle" x="56" y="-77.3" font-family="Times New Roman,serif" font-size="14.00">left: 00000000</text>
<polyline fill="none" stroke="black" points="0,-69.5 112,-69.5"/>
<text text-anchor="middle" x="56" y="-54.3" font-family="Times New Roman,serif" font-size="14.00">right: 00000000</text>
<polyline fill="none" stroke="black" points="0,-46.5 112,-46.5"/>
<text text-anchor="middle" x="56" y="-31.3" font-family="Times New Roman,serif" font-size="14.00">parent: 00000000</text>
</g>
<!-- node1&#45;&gt;node2 -->
<g id="edge2" class="edge">
<title>node1&#45;&gt;node2</title>
<path fill="none" stroke="#00bfff" d="M136.85,-175.29C128.68,-165.86 120.16,-156.03 111.84,-146.43"/>
<polygon fill="#00bfff" stroke="#00bfff" points="114.41,-144.05 105.22,-138.79 109.12,-148.64 114.41,-144.05"/>
</g>
<!-- node3 -->
<g id="node4" class="node">
<title>node3</title>
<path fill="#ccff99" stroke="black" d="M142,-23.5C142,-23.5 230,-23.5 230,-23.5 236,-23.5 242,-29.5 242,-35.5 242,-35.5 242,-126.5 242,-126.5 242,-132.5 236,-138.5 230,-138.5 230,-138.5 142,-138.5 142,-138.5 136,-138.5 130,-132.5 130,-126.5 130,-126.5 130,-35.5 130,-35.5 130,-29.5 136,-23.5 142,-23.5"/>
<text text-anchor="middle" x="186" y="-123.3" font-family="Times New Roman,serif" font-size="14.00">idx: 00E514B0</text>
<polyline fill="none" stroke="black" points="130,-115.5 242,-115.5"/>
<text text-anchor="middle" x="186" y="-100.3" font-family="Times New Roman,serif" font-size="14.00">value: 6</text>
<polyline fill="none" stroke="black" points="130,-92.5 242,-92.5"/>
<text text-anchor="middle" x="186" y="-77.3" font-family="Times New Roman,serif" font-size="14.00">left: 00000000</text>
<polyline fill="none" stroke="black" points="130,-69.5 242,-69.5"/>
<text text-anchor="middle" x="186" y="-54.3" font-family="Times New Roman,serif" font-size="14.00">right: 00000000</text>
<polyline fill="none" stroke="black" points="130,-46.5 242,-46.5"/>
<text text-anchor="middle" x="186" y="-31.3" font-family="Times New Roman,serif" font-size="14.00">parent: 00000000</text>
</g>
<!-- node1&#45;&gt;node3 -->
<g id="edge3" class="edge">
<title>node1&#45;&gt;node3</title>
<path fill="none" stroke="#ccff99" d="M186,-175.29C186,-166.7 186,-157.78 186,-149"/>
<polygon fill="#ccff99" stroke="#ccff99" points="189.5,-148.79 186,-138.79 182.5,-148.79 189.5,-148.79"/>
</g>
<!-- node5 -->
<g id="node6" class="node">
<title>node5</title>
<path fill="#00bfff" stroke="black" d="M272,-23.5C272,-23.5 360,-23.5 360,-23.5 366,-23.5 372,-29.5 372,-35.5 372,-35.5 372,-126.5 372,-126.5 372,-132.5 366,-138.5 360,-138.5 360,-138.5 272,-138.5 272,-138.5 266,-138.5 260,-132.5 260,-126.5 260,-126.5 260,-35.5 260,-35.5 260,-29.5 266,-23.5 272,-23.5"/>
<text text-anchor="middle" x="316" y="-123.3" font-family="Times New Roman,serif" font-size="14.00">idx: 00E514E0</text>
<polyline fill="none" stroke="black" points="260,-115.5 372,-115.5"/>
<text text-anchor="middle" x="316" y="-100.3" font-family="Times New Roman,serif" font-size="14.00">value: 11</text>
<polyline fill="none" stroke="black" points="260,-92.5 372,-92.5"/>
<text text-anchor="middle" x="316" y="-77.3" font-family="Times New Roman,serif" font-size="14.00">left: 00000000</text>
<polyline fill="none" stroke="black" points="260,-69.5 372,-69.5"/>
<text text-anchor="middle" x="316" y="-54.3" font-family="Times New Roman,serif" font-size="14.00">right: 00000000</text>
<polyline fill="none" stroke="black" points="260,-46.5 372,-46.5"/>
<text text-anchor="middle" x="316" y="-31.3" font-family="Times New Roman,serif" font-size="14.00">parent: 00000000</text>
</g>
<!-- node4&#45;&gt;node5 -->
<g id="edge5" class="edge">
<title>node4&#45;&gt;node5</title>
<path fill="none" stroke="#00bfff" d="M316,-175.29C316,-166.7 316,-157.78 316,-149"/>
<polygon fill="#00bfff" stroke="#00bfff" points="319.5,-148.79 316,-138.79 312.5,-148.79 319.5,-148.79"/>
</g>
<!-- node6 -->
<g id="node7" class="node">
<title>node6</title>
<path fill="#ccff99" stroke="black" d="M402,-23.5C402,-23.5 490,-23.5 490,-23.5 496,-23.5 502,-29.5 502,-35.5 502,-35.5 502,-126.5 502,-126.5 502,-132.5 496,-138.5 490,-138.5 490,-138.5 402,-138.5 402,-138.5 396,-138.5 390,-132.5 390,-126.5 390,-126.5 390,-35.5 390,-35.5 390,-29.5 396,-23.5 402,-23.5"/>
<text text-anchor="middle" x="446" y="-123.3" font-family="Times New Roman,serif" font-size="14.00">idx: 00E514F8</text>
<polyline fill="none" stroke="black" points="390,-115.5 502,-115.5"/>
<text text-anchor="middle" x="446" y="-100.3" font-family="Times New Roman,serif" font-size="14.00">value: 8</text>
<polyline fill="none" stroke="black" points="390,-92.5 502,-92.5"/>
<text text-anchor="middle" x="446" y="-77.3" font-family="Times New Roman,serif" font-size="14.00">left: 00000000</text>
<polyline fill="none" stroke="black" points="390,-69.5 502,-69.5"/>
<text text-anchor="middle" x="446" y="-54.3" font-family="Times New Roman,serif" font-size="14.00">right: 00000000</text>
<polyline fill="none" stroke="black" points="390,-46.5 502,-46.5"/>
<text text-anchor="middle" x="446" y="-31.3" font-family="Times New Roman,serif" font-size="14.00">parent: 00000000</text>
</g>
<!-- node4&#45;&gt;node6 -->
<g id="edge6" class="edge">
<title>node4&#45;&gt;node6</title>
<path fill="none" stroke="#ccff99" d="M365.15,-175.29C373.32,-165.86 381.84,-156.03 390.16,-146.43"/>
<polygon fill="#ccff99" stroke="#ccff99" points="392.88,-148.64 396.78,-138.79 387.59,-144.05 392.88,-148.64"/>
</g>
</g>
</svg>
